<svg width="260" height="260" viewBox="0 0 260 260" fill="none" xmlns="http://www.w3.org/2000/svg">
<rect width="260" height="260" rx="130" fill="#F8EFDB"/>
<g clip-path="url(#clip0)">
<path d="M83.5557 193.976C82.1741 198.346 84.6193 203.052 88.9895 204.434L120.772 214.481C125.143 215.863 129.849 213.418 131.23 209.047L133.742 201.102L86.0676 186.03L83.5557 193.976ZM155.119 50.5426C124.448 40.8466 91.6115 57.9089 81.9155 88.5794C75.9372 107.49 80.1428 127.086 91.3344 141.724L85.6575 159.681C84.276 164.051 86.7212 168.757 91.0914 170.139L138.766 185.21C143.136 186.592 147.842 184.146 149.223 179.776L154.9 161.819C172.472 156.274 187.178 142.657 193.156 123.746C202.852 93.0755 185.79 60.2385 155.119 50.5426ZM149.882 145.899L141.621 148.532L135.844 166.807L104.061 156.759L109.838 138.484L104.592 131.581C96.226 120.721 93.7126 106.555 97.807 93.6032C104.74 71.673 128.165 59.5012 150.095 66.4341C172.025 73.3669 184.197 96.792 177.264 118.722C173.17 131.674 162.97 141.821 149.882 145.899Z" fill="#FFCE20"/>
</g>
<defs>
<clipPath id="clip0">
<rect x="64.7939" y="4.50827" width="200" height="200" rx="100" transform="rotate(17.5434 64.7939 4.50827)" fill="white"/>
</clipPath>
</defs>
</svg>
